<?xml version="1.0" encoding="UTF-8" standalone="no"?>
<!DOCTYPE svg PUBLIC "-//W3C//DTD SVG 1.1//EN" "http://www.w3.org/Graphics/SVG/1.1/DTD/svg11.dtd">
<svg width="100%" height="100%" viewBox="0 0 889 89" version="1.1" xmlns="http://www.w3.org/2000/svg" xmlns:xlink="http://www.w3.org/1999/xlink" xml:space="preserve" xmlns:serif="http://www.serif.com/" style="fill-rule:evenodd;clip-rule:evenodd;stroke-linejoin:round;stroke-miterlimit:2;">
    <g transform="matrix(1,0,0,1,-327.15,-919.282)">
        <g transform="matrix(1,0,0,1,998.367,798.664)">
            <g transform="matrix(3.72273,0,0,3.72273,-1804.23,-2880.62)">
                <g transform="matrix(36,0,0,36,302.335,829.16)">
                    <path d="M0.056,-0.622L0.06,0.01L0.259,-0.004L0.249,-0.207L0.43,-0.212L0.424,-0.378L0.247,-0.369L0.244,-0.467L0.466,-0.465L0.46,-0.638L0.056,-0.622Z" style="fill:white;fill-rule:nonzero;"/>
                </g>
                <g transform="matrix(36,0,0,36,318.427,829.16)">
                    <path d="M0.254,-0.627L0.05,-0.618C0.05,-0.594 0.045,-0.085 0.045,-0.085L0.041,-0.007L0.419,0.002L0.424,-0.186L0.24,-0.181L0.254,-0.627Z" style="fill:white;fill-rule:nonzero;"/>
                </g>
                <g transform="matrix(36,0,0,36,332.755,829.16)">
                    <path d="M0.444,-0.164L0.222,-0.158L0.221,-0.242L0.371,-0.24L0.373,-0.387L0.23,-0.386L0.232,-0.466L0.422,-0.467L0.426,-0.626L0.086,-0.619L0.048,-0.593L0.044,-0.005L0.438,-0.002L0.444,-0.164Z" style="fill:white;fill-rule:nonzero;"/>
                </g>
                <g transform="matrix(36,0,0,36,347.947,829.16)">
                    <path d="M0.347,-0.159L0.356,-0L0.565,-0.011L0.525,-0.26L0.43,-0.324L0.524,-0.387L0.544,-0.607L0.346,-0.614L0.34,-0.457L0.294,-0.416L0.244,-0.464L0.24,-0.619L0.039,-0.611L0.055,-0.391L0.16,-0.327L0.059,-0.261L0.021,-0.011L0.23,-0L0.242,-0.159L0.292,-0.204L0.347,-0.159Z" style="fill:white;fill-rule:nonzero;"/>
                </g>
                <g transform="matrix(36,0,0,36,367.495,829.16)">
                    <path d="M0.05,-0.618L0.057,0.003L0.256,-0.01L0.252,-0.626L0.05,-0.618Z" style="fill:white;fill-rule:nonzero;"/>
                </g>
                <g transform="matrix(36,0,0,36,377.071,829.16)">
                    <path d="M0.452,-0.324L0.527,-0.469L0.527,-0.475L0.439,-0.624L0.297,-0.626L0.055,-0.611L0.05,-0.605L0.061,0.001L0.448,0.002L0.564,-0.188L0.564,-0.196L0.452,-0.324ZM0.342,-0.135L0.239,-0.129L0.239,-0.249L0.34,-0.249L0.342,-0.135ZM0.321,-0.376L0.23,-0.373L0.23,-0.48L0.319,-0.479L0.321,-0.376Z" style="fill:white;fill-rule:nonzero;"/>
                </g>
                <g transform="matrix(36,0,0,36,395.863,829.16)">
                    <path d="M0.254,-0.627L0.05,-0.618C0.05,-0.594 0.045,-0.085 0.045,-0.085L0.041,-0.007L0.419,0.002L0.424,-0.186L0.24,-0.181L0.254,-0.627Z" style="fill:white;fill-rule:nonzero;"/>
                </g>
                <g transform="matrix(36,0,0,36,410.191,829.16)">
                    <path d="M0.444,-0.164L0.222,-0.158L0.221,-0.242L0.371,-0.24L0.373,-0.387L0.23,-0.386L0.232,-0.466L0.422,-0.467L0.426,-0.626L0.086,-0.619L0.048,-0.593L0.044,-0.005L0.438,-0.002L0.444,-0.164Z" style="fill:white;fill-rule:nonzero;"/>
                </g>
                <g transform="matrix(36,0,0,36,432.475,829.16)">
                    <path d="M0.521,-0.304L0.511,-0.545L0.428,-0.628L0.052,-0.616L0.054,0.006L0.253,0.005L0.245,-0.199L0.467,-0.213L0.521,-0.304ZM0.24,-0.451L0.249,-0.462L0.344,-0.46L0.347,-0.344L0.241,-0.337L0.24,-0.451Z" style="fill:white;fill-rule:nonzero;"/>
                </g>
                <g transform="matrix(36,0,0,36,450.475,829.16)">
                    <path d="M0.392,0.02L0.571,-0.06L0.448,-0.236L0.515,-0.27L0.5,-0.605L0.349,-0.63L0.049,-0.612L0.056,0.004L0.251,0.001L0.242,-0.192L0.275,-0.199L0.392,0.02ZM0.224,-0.472L0.329,-0.474L0.328,-0.343L0.226,-0.335L0.224,-0.472Z" style="fill:white;fill-rule:nonzero;"/>
                </g>
                <g transform="matrix(36,0,0,36,469.339,829.16)">
                    <path d="M0.05,-0.618L0.057,0.003L0.256,-0.01L0.252,-0.626L0.05,-0.618Z" style="fill:white;fill-rule:nonzero;"/>
                </g>
                <g transform="matrix(36,0,0,36,478.915,829.16)">
                    <path d="M0.239,-0.169L0.248,-0.457L0.429,-0.46L0.422,-0.631L0.056,-0.603L0.059,-0.015L0.452,0.005L0.452,-0.181L0.239,-0.169Z" style="fill:white;fill-rule:nonzero;"/>
                </g>
                <g transform="matrix(36,0,0,36,494.611,829.16)">
                    <path d="M0.05,-0.618L0.057,0.003L0.256,-0.01L0.252,-0.626L0.05,-0.618Z" style="fill:white;fill-rule:nonzero;"/>
                </g>
                <g transform="matrix(36,0,0,36,504.187,829.16)">
                    <path d="M0.556,-0.624L0.366,-0.622L0.367,-0.424L0.22,-0.625L0.046,-0.608L0.05,-0.015L0.227,-0.012L0.231,-0.363L0.364,-0.196L0.368,-0.008L0.552,-0.012L0.556,-0.624Z" style="fill:white;fill-rule:nonzero;"/>
                </g>
                <g transform="matrix(36,0,0,36,524.635,829.16)">
                    <path d="M0.038,-0.508L0.059,0.004L0.495,-0.007L0.514,-0.352L0.334,-0.347L0.338,-0.189L0.242,-0.184L0.242,-0.452L0.48,-0.455L0.48,-0.629L0.134,-0.623L0.038,-0.508Z" style="fill:white;fill-rule:nonzero;"/>
                </g>
            </g>
        </g>
    </g>
</svg>
