<?xml version="1.0" encoding="UTF-8" standalone="no"?>
<!DOCTYPE svg PUBLIC "-//W3C//DTD SVG 1.1//EN" "http://www.w3.org/Graphics/SVG/1.1/DTD/svg11.dtd">
<svg width="100%" height="100%" viewBox="0 0 1100 92" version="1.1" xmlns="http://www.w3.org/2000/svg" xmlns:xlink="http://www.w3.org/1999/xlink" xml:space="preserve" xmlns:serif="http://www.serif.com/" style="fill-rule:evenodd;clip-rule:evenodd;stroke-linejoin:round;stroke-miterlimit:2;">
    <g transform="matrix(1,0,0,1,-447.85,-370.699)">
        <g transform="matrix(1,0,0,1,998.367,798.664)">
            <g transform="matrix(3.72273,0,0,3.72273,-1682.33,-3425.59)">
                <g transform="matrix(36,0,0,36,302.335,829.16)">
                    <path d="M0.408,-0.628L0.047,-0.616L0.06,-0.013L0.42,-0.008L0.535,-0.147L0.547,-0.503L0.408,-0.628ZM0.239,-0.173L0.24,-0.456L0.357,-0.446L0.358,-0.187L0.239,-0.173Z" style="fill:white;fill-rule:nonzero;"/>
                </g>
                <g transform="matrix(36,0,0,36,321.775,829.16)">
                    <path d="M0.492,-0.623L0.062,-0.616L0.047,-0.023L0.223,-0.003L0.518,-0.015L0.539,-0.128L0.492,-0.623ZM0.22,-0.174L0.225,-0.452L0.336,-0.446L0.349,-0.179L0.22,-0.174Z" style="fill:white;fill-rule:nonzero;"/>
                </g>
                <g transform="matrix(36,0,0,36,340.819,829.16)">
                    <path d="M0.556,-0.624L0.366,-0.622L0.367,-0.424L0.22,-0.625L0.046,-0.608L0.05,-0.015L0.227,-0.012L0.231,-0.363L0.364,-0.196L0.368,-0.008L0.552,-0.012L0.556,-0.624Z" style="fill:white;fill-rule:nonzero;"/>
                </g>
                <g transform="matrix(36,0,0,36,361.267,829.16)">
                    <path d="M0.026,-0.661L0.038,-0.458L0.156,-0.466L0.181,-0.665L0.026,-0.661Z" style="fill:white;fill-rule:nonzero;"/>
                </g>
                <g transform="matrix(36,0,0,36,367.135,829.16)">
                    <path d="M0.476,-0.629L0.007,-0.619L0.009,-0.444L0.153,-0.449L0.151,-0.001L0.347,-0.01L0.326,-0.453L0.484,-0.451L0.476,-0.629Z" style="fill:white;fill-rule:nonzero;"/>
                </g>
                <g transform="matrix(36,0,0,36,390.427,829.16)">
                    <path d="M0.452,-0.324L0.527,-0.469L0.527,-0.475L0.439,-0.624L0.297,-0.626L0.055,-0.611L0.05,-0.605L0.061,0.001L0.448,0.002L0.564,-0.188L0.564,-0.196L0.452,-0.324ZM0.342,-0.135L0.239,-0.129L0.239,-0.249L0.34,-0.249L0.342,-0.135ZM0.321,-0.376L0.23,-0.373L0.23,-0.48L0.319,-0.479L0.321,-0.376Z" style="fill:white;fill-rule:nonzero;"/>
                </g>
                <g transform="matrix(36,0,0,36,409.219,829.16)">
                    <path d="M0.444,-0.164L0.222,-0.158L0.221,-0.242L0.371,-0.24L0.373,-0.387L0.23,-0.386L0.232,-0.466L0.422,-0.467L0.426,-0.626L0.086,-0.619L0.048,-0.593L0.044,-0.005L0.438,-0.002L0.444,-0.164Z" style="fill:white;fill-rule:nonzero;"/>
                </g>
                <g transform="matrix(36,0,0,36,431.503,829.16)">
                    <path d="M0.498,-0.388L0.351,-0.625L0.175,-0.618L0.048,-0.359L0.024,-0.001L0.196,0.002L0.201,-0.105L0.344,-0.117L0.354,0.007L0.534,-0.001L0.498,-0.388ZM0.208,-0.255L0.215,-0.345L0.269,-0.458L0.325,-0.343L0.331,-0.262L0.208,-0.255Z" style="fill:white;fill-rule:nonzero;"/>
                </g>
                <g transform="matrix(36,0,0,36,456.847,829.16)">
                    <path d="M0.408,-0.628L0.047,-0.616L0.06,-0.013L0.42,-0.008L0.535,-0.147L0.547,-0.503L0.408,-0.628ZM0.239,-0.173L0.24,-0.456L0.357,-0.446L0.358,-0.187L0.239,-0.173Z" style="fill:white;fill-rule:nonzero;"/>
                </g>
                <g transform="matrix(36,0,0,36,476.287,829.16)">
                    <path d="M0.05,-0.618L0.057,0.003L0.256,-0.01L0.252,-0.626L0.05,-0.618Z" style="fill:white;fill-rule:nonzero;"/>
                </g>
                <g transform="matrix(36,0,0,36,485.863,829.16)">
                    <path d="M0.556,-0.624L0.366,-0.622L0.367,-0.424L0.22,-0.625L0.046,-0.608L0.05,-0.015L0.227,-0.012L0.231,-0.363L0.364,-0.196L0.368,-0.008L0.552,-0.012L0.556,-0.624Z" style="fill:white;fill-rule:nonzero;"/>
                </g>
                <g transform="matrix(36,0,0,36,506.311,829.16)">
                    <path d="M0.492,-0.623L0.062,-0.616L0.047,-0.023L0.223,-0.003L0.518,-0.015L0.539,-0.128L0.492,-0.623ZM0.22,-0.174L0.225,-0.452L0.336,-0.446L0.349,-0.179L0.22,-0.174Z" style="fill:white;fill-rule:nonzero;"/>
                </g>
                <g transform="matrix(36,0,0,36,525.355,829.16)">
                    <path d="M0.219,-0.621L0.058,-0.604L0.04,-0.355L0.252,-0.232L0.249,-0.175L0.031,-0.187L0.049,0.013L0.428,-0.023L0.444,-0.324L0.24,-0.417L0.247,-0.46L0.427,-0.461L0.428,-0.628L0.219,-0.621Z" style="fill:white;fill-rule:nonzero;"/>
                </g>
                <g transform="matrix(36,0,0,36,541.123,829.16)">
                    <path d="M0.498,-0.388L0.351,-0.625L0.175,-0.618L0.048,-0.359L0.024,-0.001L0.196,0.002L0.201,-0.105L0.344,-0.117L0.354,0.007L0.534,-0.001L0.498,-0.388ZM0.208,-0.255L0.215,-0.345L0.269,-0.458L0.325,-0.343L0.331,-0.262L0.208,-0.255Z" style="fill:white;fill-rule:nonzero;"/>
                </g>
                <g transform="matrix(36,0,0,36,559.375,829.16)">
                    <path d="M0.35,-0.619L0.357,-0.207L0.236,-0.191L0.228,-0.608L0.052,-0.605L0.049,-0.035L0.086,-0.001L0.474,-0.014L0.551,-0.082L0.524,-0.621L0.35,-0.619Z" style="fill:white;fill-rule:nonzero;"/>
                </g>
                <g transform="matrix(36,0,0,36,578.851,829.16)">
                    <path d="M0.392,0.02L0.571,-0.06L0.448,-0.236L0.515,-0.27L0.5,-0.605L0.349,-0.63L0.049,-0.612L0.056,0.004L0.251,0.001L0.242,-0.192L0.275,-0.199L0.392,0.02ZM0.224,-0.472L0.329,-0.474L0.328,-0.343L0.226,-0.335L0.224,-0.472Z" style="fill:white;fill-rule:nonzero;"/>
                </g>
            </g>
        </g>
    </g>
</svg>
